<?xml version="1.0" encoding="utf-8"?>
<!-- Generator: Adobe Illustrator 19.1.0, SVG Export Plug-In . SVG Version: 6.00 Build 0)  -->
<svg version="1.1" id="Capa_1" xmlns="http://www.w3.org/2000/svg" xmlns:xlink="http://www.w3.org/1999/xlink" x="0px" y="0px"
	 viewBox="147 -146 393 393" style="enable-background:new 147 -146 393 393;" xml:space="preserve">
<style type="text/css">
	.st0{fill:#018063;}
</style>
<g>
	<path class="st0" d="M539.9-5.2c-0.6-3.5-3.6-6.1-7.2-6.2l-66-2c-11.5-4.5-97.9-37.5-191.3-44.1c-1.2-0.1-2.1-1-2.1-2.2v-10.7
		c0-28.9-23.5-52.3-52.3-52.3c-12.8,0-25,4.6-34.6,13.1c-2.6,2.3-4.5,5.2-5.5,8.3c-6.8,1.4-18.8,4.8-30.4,12.1
		c-3.5,2.2-4.5,6.8-2.3,10.3c1.4,2.3,3.9,3.5,6.3,3.5c1.4,0,2.8-0.4,4-1.2c8.6-5.4,17.6-8.3,23.4-9.7c5.1,10.1,14.9,17.1,26.8,19.3
		c0.7,0.1,1,0.7,1.2,0.9c0.2,0.5,0.3,1,0,1.5c-5,10.7-7.6,23.2-7.8,37.1l0,0.3c-0.3,42.3,26.4,79.5,66.6,92.7l10.6,3.5
		c7.4,2.4,14.9,4.3,22.5,5.6v34c-33.8,9.3-58.7,40.3-58.7,77c0,7.9,1.1,15.6,3.4,23c-0.4,0-0.8,0-1.2,0c-7.8,0-15.1-3.1-20.5-8.8
		c-1.4-1.5-3.4-2.3-5.4-2.3s-4,0.8-5.4,2.3c-5.4,5.7-12.7,8.8-20.5,8.8c-7.8,0-15.1-3.1-20.5-8.8c-2.9-3-7.6-3.1-10.6-0.3
		c-3,2.9-3.1,7.6-0.3,10.6c8.3,8.7,19.4,13.4,31.4,13.4c9.5,0,18.5-3,25.9-8.6c7.4,5.6,16.4,8.6,25.9,8.6c9.5,0,18.5-3,25.9-8.6
		c7.4,5.6,16.4,8.6,25.9,8.6c9.5,0,18.5-3,25.9-8.6c7.4,5.6,16.4,8.6,25.9,8.6s18.5-3,25.9-8.6c7.4,5.6,16.4,8.6,25.9,8.6
		c9.5,0,18.5-3,25.9-8.6c7.4,5.6,16.4,8.6,25.9,8.6c12,0,23.1-4.8,31.4-13.4c2.9-3,2.7-7.7-0.3-10.6c-3-2.9-7.7-2.7-10.6,0.3
		c-5.4,5.7-12.7,8.8-20.5,8.8c-7.8,0-15.1-3.1-20.5-8.8c-1.4-1.5-3.4-2.3-5.4-2.3s-4,0.8-5.4,2.3c-5.4,5.7-12.7,8.8-20.5,8.8
		c-0.4,0-0.8,0-1.2,0c2.2-7.4,3.4-15.1,3.4-23c0-37.2-25.5-68.5-60-77.4V76c1.9-0.2,3.8-0.4,5.8-0.7c20.1-3,37.7-9.6,52.5-19.7
		c30-10,129.8-50.8,134.1-52.5C538.6,1.7,540.5-1.8,539.9-5.2z M195.2-93.2c-0.9-1.8-0.4-3.9,1.1-5.2c6.8-6,15.6-9.3,24.7-9.3
		c20.6,0,37.3,16.8,37.3,37.3v10.7c0,9,7,16.5,16,17.2C343.4-37.7,408.6-18,441-6.8c-19.6,15.1-66.2,46.1-120.5,46.1
		c-77.3,0-91.4-22.2-93.4-26.6c-0.2-0.4-0.4-0.7-0.6-1c-6.1-11.6-9.4-24.8-9.3-38.7l0-0.3c0.1-11.8,2.2-22.1,6.3-30.8
		c2.2-4.7,2.1-10.1-0.3-14.7c-2.4-4.6-6.8-7.9-11.8-8.8C204.1-83,198.2-87.2,195.2-93.2z M366.6,137.5h-86.9
		c11.5-10.4,26.8-16.8,43.5-16.8C339.8,120.8,355.1,127.1,366.6,137.5z M267.3,152.5h111.5c1.5,2.5,2.8,5.1,4,7.9H263.3
		C264.5,157.7,265.8,155,267.3,152.5z M380.4,200c-1.4-1.5-3.4-2.3-5.4-2.3s-4,0.8-5.4,2.3c-5.4,5.7-12.7,8.8-20.5,8.8
		s-15.1-3.1-20.5-8.8c-1.4-1.5-3.4-2.3-5.4-2.3c-2.1,0-4,0.8-5.4,2.3c-5.4,5.7-12.7,8.8-20.5,8.8c-7.8,0-15.1-3.1-20.5-8.8
		c-1.4-1.5-3.4-2.3-5.4-2.3s-4,0.8-5.4,2.3c-1.5,1.6-3.2,3-5,4.1c-1.8-5.9-2.7-12.1-2.7-18.4c0-3.5,0.3-6.9,0.8-10.3h128.2
		c0.5,3.4,0.8,6.8,0.8,10.3c0,6.3-0.9,12.5-2.7,18.4C383.6,202.9,381.9,201.5,380.4,200z M328,105.9c-1.6-0.1-3.2-0.2-4.9-0.2
		c-2.1,0-4.2,0.1-6.2,0.3V76.5c3.5,0.2,7,0.4,10.5,0.4c0,0,0,0,0,0c0.2,0,0.4,0,0.6,0L328,105.9L328,105.9z M395.5,41.6
		c-0.7,0.2-1.4,0.6-2,1c-13,9.1-28.8,15.1-47,17.8c-6.3,0.9-12.7,1.4-19.1,1.4c0,0,0,0,0,0c-14.5,0-29.1-2.4-43.3-7l-10.6-3.5
		c-0.8-0.3-1.5-0.5-2.3-0.8c14.2,2.5,30.7,3.8,49.3,3.8c67.8,0,122.7-42.9,137-55.1c3,1.2,4.7,1.8,4.8,1.9c0.8,0.3,1.7,0.5,2.6,0.6
		l31.7,0.9C463.1,16.1,413.5,35.8,395.5,41.6z"/>
	<circle class="st0" cx="216.5" cy="-95.2" r="8.2"/>
</g>
</svg>
