<?xml version="1.0" encoding="utf-8"?>
<!-- Generator: Adobe Illustrator 19.1.0, SVG Export Plug-In . SVG Version: 6.00 Build 0)  -->
<svg version="1.1" id="Capa_1" xmlns="http://www.w3.org/2000/svg" xmlns:xlink="http://www.w3.org/1999/xlink" x="0px" y="0px"
	 viewBox="185 -184.6 469.6 469.6" style="enable-background:new 185 -184.6 469.6 469.6;" xml:space="preserve">
<style type="text/css">
	.st0{fill:#018063;}
</style>
<g>
	<path class="st0" d="M654.3,208.8c-6.7-23.3-32.8-69-37.3-76.9c-1.3-6.5-8-35.3-27.5-70.6C569.6,25.4,532.2-24.2,466.3-58
		c-7.7-20.6,3.6-30.2,18.1-39.7c3.1-2,5.6-3.7,7.4-5.5c2-2,2.7-4.9,1.9-7.5c-0.8-2.7-3.1-4.6-5.8-5.1c-36.5-6.7-63.4,3.3-79.6,12.9
		c-12.2,7.2-20.2,15.3-24.1,19.8c-24.6-2.5-48.7-0.3-71.9,6.6c-52.1,15.5-81.9,48.5-92.3,62c-9.4,12.2-14.7,26.9-15.3,42.4l0,0.2
		c-0.2,6.3-2.1,12.4-5.5,17.6c-20.1,30.5-15.2,46-7.6,53.6c14.3,14.3,35.2-0.5,51.9-12.5c8.5-6.1,17.3-12.3,22.9-13.4
		c1.9-0.4,4.3-0.9,7.3-1.6c6.9-1.6,17-4,29.9-6c2.8,3.4,7.6,9.1,13.6,15.1c12.9,13,24.3,20.5,33.8,22.2c0.4,0.1,0.9,0.1,1.3,0.1
		c1.7,0,3.4-0.6,4.8-1.7c1.7-1.4,2.7-3.5,2.7-5.8c0-7.3-0.8-23.8-1.4-33.7c3.8,0.1,7.8,0.2,11.8,0.4c6.3,5.8,13,10.4,18,13.5
		c16.2,10.1,34.7,16.8,46,16.8c3.8,0,7-2.8,7.4-6.6c0.4-3.8,0.2-7.7-0.5-11.8c42.3,12.5,82.5,34.4,119.7,65.4
		c-7.8,7.7-17,17.8-24.3,29c-9.9,15.1-13.9,28.6-12,40c0.4,2.2,1.7,4.2,3.7,5.3c2,1.1,4.4,1.3,6.5,0.4c3.3-1.3,7-3.4,11.1-5.9
		c20.2-11.7,50.8-29.4,96.5,8.2c1.4,1.1,3.1,1.7,4.8,1.7c1.4,0,2.9-0.4,4.1-1.2C654,215.4,655.2,212,654.3,208.8z M464.5-103
		c0.5,0,1.1,0,1.6,0c-4.1,3.3-8.2,7.4-11.4,12.5c-4.6,7.4-6.5,15.6-5.7,24.4c-15.4-6.6-30.9-11.3-46.3-14.3
		C413.6-89.9,434.2-103,464.5-103z M321.3,63.6c6.8-0.7,14.2-1.2,22-1.4c0.3,6,0.8,14.7,1.1,22.1C336.8,79.5,328.3,71.3,321.3,63.6z
		 M540.5,194.3c4.2-13.8,17.2-31.6,36.6-49.4c1.6-1.4,2.5-3.5,2.4-5.6s-1-4.2-2.6-5.6C533.3,95.8,485.4,70,434.7,57
		c-3.7-6.9-8.7-14.1-15.2-21.7c-11.6-13.7-23.6-23.4-24.1-23.9c-3.2-2.6-7.9-2.1-10.6,1.1c-2.6,3.2-2.1,7.9,1.1,10.6
		c0.1,0.1,11.4,9.3,22.1,22c10.2,12,16.4,22.7,18.3,31.6c-8.1-2-19.1-6.5-30.2-13.4c-16.2-10.1-27-21.8-29.6-32.1
		c-1-4-5.1-6.5-9.1-5.5c-4,1-6.5,5.1-5.5,9.1c1.1,4.3,2.9,8.4,5.3,12.3c-41.5-0.4-71.6,6.6-86.9,10.2c-2.8,0.7-5.1,1.2-6.7,1.5
		c-8.7,1.7-18.4,8.6-28.7,15.9c-12.2,8.6-27.3,19.4-32.7,14.1c-5-5-1.3-18.3,9.5-34.8c4.9-7.5,7.7-16.2,8-25.3l0-0.2
		c0.5-12.4,4.7-24.1,12.2-33.8c9.5-12.3,36.8-42.6,84.7-56.8c44.9-13.3,92.2-7.9,140.4,16.3c63.8,32,100,79.6,119,113.9
		c20.7,37.4,26.4,67.6,26.4,67.9c0.2,0.9,0.5,1.7,0.9,2.5c0.2,0.4,16.5,28.4,27.6,52.3C589.7,167.7,558.9,183.7,540.5,194.3z"/>
	<path class="st0" d="M364.2-58.9c-12.5-0.2-24.9,0.8-37,3.1c-4.1,0.8-6.7,4.7-5.9,8.8c0.7,3.6,3.8,6.1,7.4,6.1c0.5,0,0.9,0,1.4-0.1
		c11-2.1,22.4-3.1,33.8-2.9c4.1,0.1,7.6-3.2,7.6-7.4C371.7-55.4,368.4-58.8,364.2-58.9z"/>
	<path class="st0" d="M451.2-37.1C432.7-46,414-52.2,395.5-55.7c-4.1-0.8-8,1.9-8.8,6s1.9,8,6,8.8c17.2,3.2,34.7,9.1,52,17.4
		c58.4,28,91.3,69.8,108.7,99.8c1.4,2.4,3.9,3.8,6.5,3.8c1.3,0,2.6-0.3,3.7-1c3.6-2.1,4.8-6.7,2.7-10.2
		C548,36.9,513.1-7.4,451.2-37.1z"/>
	<circle class="st0" cx="244.2" cy="26.6" r="8.2"/>
</g>
</svg>
