<?xml version="1.0" encoding="utf-8"?>
<!-- Generator: Adobe Illustrator 19.1.0, SVG Export Plug-In . SVG Version: 6.00 Build 0)  -->
<svg version="1.1" id="Capa_1" xmlns="http://www.w3.org/2000/svg" xmlns:xlink="http://www.w3.org/1999/xlink" x="0px" y="0px"
	 viewBox="49 -48.5 197.5 197.5" style="enable-background:new 49 -48.5 197.5 197.5;" xml:space="preserve">
<style type="text/css">
	.st0{fill:#018063;stroke:#018063;stroke-width:2;stroke-miterlimit:10;}
</style>
<path class="st0" d="M211.7,100.5c-3.6,0-8.4-1-14.8-3.1c-9.1-3-20.9-8.2-30.8-21.3c-5.8-7.7-9.6-14.8-10.8-17.2
	c-4.2-1.8-22.6-9.9-35.4-17.9c-14.1-8.8-17.7-12.5-18-12.9c-0.5-0.5-0.7-1.3-0.6-2c0.1-0.7,0.5-1.4,1.1-1.8
	c0.1-0.1,11.9-7.9,24.3-25.3c5.4-7.5,11.5-15.9,17.9-24.1c0.4-2.8,2.8-12.2,15-33.5c14.7-25.6,36.4-33,37.4-33.3
	c1.1-0.4,2.3,0.1,2.9,1.1c0.6,1,0.4,2.3-0.4,3.1c-0.1,0.1-7.4,7.2-10.4,14.4c-1.3,3.1-2,5.9-2.3,8.1c4.6-2.9,9.2-5.4,13.7-7.9
	c3-1.6,6.1-3.3,9.1-5.1c13.2-7.6,33.5-18.4,33.7-18.5c1-0.6,2.3-0.3,3.1,0.6s0.8,2.2,0,3.1c-0.2,0.2-15.7,20.2-20.4,40.1
	c5.4,1.1,16.9,4.8,20.9,17.3c2,6.2,1.5,13.5,0.1,20c3.6-4,8.1-8,13.6-11c16.4-8.7,25.6-8,26-8c0.8,0.1,1.6,0.6,2,1.3
	c0.4,0.8,0.4,1.7,0,2.4c-0.1,0.2-10.2,18.1-10.2,35.9c0,17.6,13.4,34.1,13.5,34.3c0.6,0.7,0.7,1.7,0.4,2.5c-0.3,0.8-1.1,1.4-2,1.5
	c-0.7,0.1-16.1,1.8-27.1-2.5c-6.8-2.7-13.7-7.7-18-11.1c0.1,21.9-2.4,29.3-7.9,37.1c-4.9,7-10.9,10.6-18.2,11.2
	c-2.4,0.2-4.8-0.2-7.1-0.9c4,5.7,8.4,12.7,8.2,16.5c-0.1,2.8-1.5,4.3-2.6,5.1C216.1,100,214.2,100.5,211.7,100.5z M159.4,55.9
	c0.2,0.5,4.2,8.6,10.7,17.2c9.1,12,19.9,16.8,28.4,19.5c11.9,3.9,15.3,2.9,16.2,2.3c0.2-0.1,0.5-0.3,0.5-1.2
	c0.1-3-6.8-13.3-13.2-21.2c-3.5-3.9-10.3-10.6-17.8-13.6c-18.4-7.5-23.6-6.6-24.7-6.1c-0.6,0.2-0.7,0.5-0.7,0.6
	c-0.2,0.6,0.3,1.8,0.6,2.3C159.3,55.7,159.3,55.8,159.4,55.9z M205.4,68.9c1.3,0.9,7.8,4.8,13.2,4.4c5.8-0.5,10.4-3.4,14.5-9.1
	c5.1-7.2,7.5-13.6,6.9-39.5c0-0.1,0-0.2,0-0.3c0-0.5,0-1,0-1.5c-0.2-7.2-1.8-13.6-4.1-19.6V3.2c-1.9-5-4.3-9.8-6.6-14.4
	c-5.3-10.6-10.3-20.6-9.7-33c0.8-15.9,10.2-33,16.7-43.1c-7.1,3.8-16.9,9.1-24.3,13.5c-3.1,1.8-6.2,3.5-9.3,5.2
	c-5.9,3.1-11.7,6.2-17.5,10.1c-0.1,0.1-0.2,0.1-0.3,0.2c-4.1,2.7-8.1,5.8-12.3,9.6c-14.7,13.3-30.1,34-41.9,50.5
	c-9.6,13.5-18.7,21.4-23,24.7c2.3,1.9,6.8,5.2,14.8,10.2c10.1,6.3,24.1,12.8,31.2,16c0-0.3,0.1-0.6,0.2-1c0.4-1.2,1.3-2.7,3.6-3.6
	c1.7-0.7,6.8-2.7,28.5,6.2C194.3,57.6,201.5,64.6,205.4,68.9z M245,23.2c2.6,2.3,11.5,9.9,19.9,13.1c6.5,2.5,15.1,2.7,20.3,2.5
	c-4.3-6.2-11.9-19.4-11.9-33.7c0-14,5.6-27.7,8.7-34.3c-3.8,0.6-10.3,2.4-19.2,7.1c-12.5,6.7-19.7,19.8-21.8,24
	c-0.1,0.2-0.1,0.3-0.2,0.4c2.2,6.1,3.8,12.7,4.1,20.3C244.9,22.8,245,23,245,23.2z M224.9-48c-0.2,1.3-0.3,2.6-0.4,3.9
	c-0.5,11,4.2,20.5,9.2,30.5c1.5,3.1,3.1,6.1,4.5,9.3c2.8-7.2,6.8-20.3,3.8-29.8C238.8-44.2,229.3-47.2,224.9-48z M187.9-81.7
	c-7.2,4.6-16.6,12.6-24,25.6c-5,8.7-8.2,15.3-10.3,20.2c5.2-6,10.5-11.7,15.8-16.4c4-3.6,8-6.7,11.9-9.4c0.1-2.4,0.6-7.5,3.1-13.5
	C185.3-77.5,186.5-79.7,187.9-81.7z M215.5,57.4c-0.6,0-1.2-0.2-1.7-0.6c-1-0.9-1.1-2.5-0.2-3.5c0.1-0.2,10.4-12.2,9.4-32
	c-0.7-13.8-4.8-19-9.5-25.1c-3.7-4.7-7.8-10-10.3-19.8c-5.3-21,3.3-37.3,3.6-38c0.7-1.2,2.2-1.7,3.4-1s1.7,2.2,1,3.4
	c-0.1,0.1-8,15.4-3.2,34.4c2.2,8.8,5.7,13.2,9.4,17.9c4.8,6.1,9.7,12.5,10.5,27.9c1.2,22-10.1,35.1-10.6,35.6
	C216.9,57.1,216.2,57.4,215.5,57.4z M171.3,39.7c-1,0-1.9-0.6-2.3-1.5c-0.6-1.3,0-2.7,1.3-3.3c0.7-0.3,16.4-7.5,13.4-26.3
	c-3.1-19.8-27.5-21.2-27.8-21.2c-1.4-0.1-2.4-1.2-2.4-2.6c0.1-1.4,1.2-2.4,2.6-2.4c0.3,0,28.7,1.7,32.5,25.4
	c3.6,22.7-16.2,31.6-16.4,31.6C172,39.6,171.7,39.7,171.3,39.7z M143.5,26.2c-4.7,0-8.5-3.8-8.5-8.5s3.8-8.5,8.5-8.5
	s8.5,3.8,8.5,8.5C152.1,22.4,148.2,26.2,143.5,26.2z M143.5,14.2c-2,0-3.5,1.6-3.5,3.5c0,2,1.6,3.5,3.5,3.5s3.5-1.6,3.5-3.5
	S145.5,14.2,143.5,14.2z"/>
</svg>
