<?xml version="1.0" encoding="utf-8"?>
<!-- Generator: Adobe Illustrator 19.1.0, SVG Export Plug-In . SVG Version: 6.00 Build 0)  -->
<svg version="1.1" id="Capa_1" xmlns="http://www.w3.org/2000/svg" xmlns:xlink="http://www.w3.org/1999/xlink" x="0px" y="0px"
	 viewBox="196 -196.9 492.9 492.9" style="enable-background:new 196 -196.9 492.9 492.9;" xml:space="preserve">
<style type="text/css">
	.st0{fill:#018063;}
</style>
<path class="st0" d="M593.5,205.7l-45.2-60.3c-2.9-3.9-4.5-8.7-4.5-13.5V-13h9c11.3,0,20.5-9.2,20.5-20.5c0-11-8.7-19.9-19.5-20.5
	v-31.5c0-61.4-50-111.4-111.4-111.4S331-146.9,331-85.5V-54c-10.8,0.5-19.5,9.5-19.5,20.5c0,11.3,9.2,20.5,20.5,20.5h9v145
	c0,4.8-1.6,9.6-4.5,13.5l-45.2,60.3c-2.5,3.3-1.8,8,1.5,10.5c1.3,1,2.9,1.5,4.5,1.5c2.3,0,4.5-1,6-3l45.2-60.3
	c4.8-6.4,7.5-14.4,7.5-22.5V-13h27.7v197.4c0,5.8-1.2,11.4-3.4,16.7l-21.6,50.3c-1.6,3.8,0.1,8.2,3.9,9.8c1,0.4,2,0.6,3,0.6
	c2.9,0,5.7-1.7,6.9-4.5l21.6-50.3c3.1-7.2,4.6-14.8,4.6-22.6V-13h36.2v301.5c0,4.1,3.4,7.5,7.5,7.5c4.1,0,7.5-3.4,7.5-7.5V-13h36.2
	v197.4c0,7.8,1.6,15.5,4.6,22.6l21.6,50.3c1.2,2.8,4,4.5,6.9,4.5c1,0,2-0.2,3-0.6c3.8-1.6,5.6-6,3.9-9.8l-21.6-50.3
	c-2.3-5.3-3.4-11-3.4-16.7V-13h27.7v145c0,8.1,2.7,16.1,7.5,22.5l45.2,60.3c1.5,2,3.7,3,6,3c1.6,0,3.1-0.5,4.5-1.5
	C595.3,213.8,596,209,593.5,205.7z M326.5-33.5c0-3,2.5-5.5,5.5-5.5h6.5h172.2c4.1,0,7.5-3.4,7.5-7.5s-3.4-7.5-7.5-7.5H346v-31.5
	c0-53.2,43.3-96.4,96.4-96.4s96.4,43.3,96.4,96.4v39c0,4.1,3.4,7.5,7.5,7.5h6.5c3,0,5.5,2.5,5.5,5.5s-2.5,5.5-5.5,5.5H332
	C329-28,326.5-30.5,326.5-33.5z M520.7-78c-4.1,0-7.5-3.4-7.5-7.5c0-39-31.8-70.8-70.8-70.8c-4.1,0-7.5-3.4-7.5-7.5s3.4-7.5,7.5-7.5
	c47.3,0,85.8,38.5,85.8,85.8C528.2-81.3,524.9-78,520.7-78z"/>
</svg>
