<?xml version="1.0" encoding="utf-8"?>
<!-- Generator: Adobe Illustrator 19.1.0, SVG Export Plug-In . SVG Version: 6.00 Build 0)  -->
<svg version="1.1" id="Capa_1" xmlns="http://www.w3.org/2000/svg" xmlns:xlink="http://www.w3.org/1999/xlink" x="0px" y="0px"
	 viewBox="200 -199.7 499.7 499.7" style="enable-background:new 200 -199.7 499.7 499.7;" xml:space="preserve">
<style type="text/css">
	.st0{fill:#018063;}
</style>
<g>
	<path class="st0" d="M694.9,284.9c-5.6-2.6-11.1-6.1-16.8-9.8c-12.4-8-25.3-16.3-41.8-16.3c-12.7,0-23.7,6.9-34.3,13.6
		c-9.6,6.1-18.7,11.8-28,11.8c-9.3,0-18.8-5.7-28.9-11.7c-3.1-1.9-6.3-3.7-9.5-5.5c21.1-26.7,31.6-59.8,29.6-94
		c-0.1-2.5-1.5-4.8-3.6-6.2c-2.1-1.4-4.7-1.7-7.1-0.8c-22.4,8.2-44.2,14.5-66,19.1l35.8-74.6c1.6-3.3,0.7-7.3-2.2-9.6
		c-2.8-2.2-5.6-4.5-8.5-6.7C465.1,55.9,405.7,9,355.1-139.4l60.2-28.4c2.2-1.1,3.4-3.5,2.9-5.9c-0.5-2.4-2.7-4.1-5.2-4.1l-70.1,0
		c-1.6-5.3-3.1-10.6-4.6-16.1c-1-3.7-4.5-6.1-8.3-5.8c-3.8,0.3-6.8,3.2-7.2,7c-7.8,69-16.6,246.8,68.9,416.9
		c-9.8,4.3-19.9,8.3-30.4,12.1c-2,0.7-3.7,2.3-4.6,4.2c-0.9,2-0.9,4.2-0.1,6.2c2.9,7.2,6.6,12.6,10.6,16.9
		c-5.3,2.5-10.4,5.7-15.3,8.9c-9.2,5.9-17.9,11.4-26.8,11.4c-9,0-18-5.7-27.6-11.7c-10.7-6.7-21.7-13.7-34.5-13.7
		c-16.5,0-29.2,8.3-41.6,16.3c-5.7,3.7-11.1,7.2-16.7,9.8c-4,1.8-5.7,6.5-3.9,10.5c1.8,4,6.6,5.7,10.5,3.9c6.6-3.1,12.7-7,18.7-10.9
		c10.9-7.1,21.2-13.8,33-13.8c8.2,0,16.8,5.5,26,11.2c11.1,7,22.5,14.1,36,14.1c13.4,0,24.6-7.1,35.3-13.9
		c9.2-5.9,18-11.5,26.8-11.5c8.9,0,17.8,5.6,27.2,11.6c10.8,6.8,21.9,13.8,35.1,13.8c13.3,0,24.2-7.4,33.8-14
		c8.6-5.9,16.7-11.4,25.5-11.4c8.9,0,18.3,5.6,28.2,11.5c11.5,6.8,23.4,13.9,37,13.9c13.9,0,25.9-7.6,36.5-14.2
		c9.1-5.7,17.7-11.1,25.8-11.1c11.8,0,22.2,6.7,33.2,13.8c6,3.8,12.1,7.8,18.8,10.9c1.1,0.5,2.2,0.7,3.3,0.7c3,0,5.9-1.7,7.2-4.6
		C700.7,291.4,698.9,286.7,694.9,284.9z M389.5-167.2l-37.7,17.8c-1.9-5.8-3.8-11.7-5.6-17.8L389.5-167.2z M335.1-149.4
		C388.1,15.4,451.9,65.7,503.9,106.7c1.2,0.9,2.3,1.8,3.5,2.7l-38.1,79.4c-4.4,0.7-8.9,1.4-13.3,2c0,0-0.1,0-0.1,0
		c-0.3,0-0.5,0.1-0.8,0.2c-0.2,0.1-0.5,0.1-0.7,0.2c-0.2,0.1-0.4,0.2-0.6,0.3c-0.3,0.1-0.6,0.3-0.8,0.4c0,0-0.1,0-0.1,0.1
		c-14.9,9.5-30.3,18-46.6,25.8C336,78.6,330.5-66.1,335.1-149.4z M474.4,272.9c-8.5,5.8-16.5,11.2-24.9,11.2
		c-8.6,0-17.4-5.5-26.6-11.4c-10.9-6.9-22.2-14-35.7-14c-0.6,0-1.2,0.1-1.8,0.1c-4-3.1-7.4-6.3-10.3-10.6
		c30.8-11.6,58.6-25.4,84.7-42c30-4,59.5-11.1,89.8-21.6c-0.8,27.8-11,54.4-29.1,75.8c-3.7-1.1-7.6-1.7-11.6-1.7
		C495.2,258.8,484.1,266.3,474.4,272.9z"/>
	<path class="st0" d="M550.5-129.7c13.8,1.5,24.1,10.1,29.1,17.7c1,1.5,2.7,2.4,4.4,2.4c0.4,0,0.8,0,1.1-0.1
		c2.1-0.5,3.8-2.2,4.1-4.4c3.2-21.6,14.2-38.9,34.5-54.6c2.3-1.8,2.7-5.1,1-7.4c-1.8-2.3-5.1-2.7-7.4-1
		c-18.9,14.6-30.8,31.2-36.2,50.6c-7.1-6.7-17.2-12.4-29.4-13.7c-2.9-0.3-5.5,1.8-5.8,4.7C545.5-132.6,547.6-130,550.5-129.7z"/>
	<path class="st0" d="M649.1-75.7c8,0.8,14,5.9,16.9,10.3c1,1.5,2.7,2.4,4.4,2.4c0.4,0,0.8,0,1.1-0.1c2.1-0.5,3.8-2.2,4.1-4.4
		c2-13.1,8.6-23.6,21-33.1c2.3-1.8,2.7-5.1,1-7.4c-1.8-2.3-5.1-2.7-7.4-1c-11.3,8.7-18.8,18.6-22.6,30c-4.5-3.6-10.4-6.4-17.4-7.2
		c-2.9-0.3-5.5,1.8-5.8,4.7C644.1-78.6,646.2-76,649.1-75.7z"/>
</g>
</svg>
