<?xml version="1.0" encoding="utf-8"?>
<!-- Generator: Adobe Illustrator 19.1.0, SVG Export Plug-In . SVG Version: 6.00 Build 0)  -->
<svg version="1.1" id="Capa_1" xmlns="http://www.w3.org/2000/svg" xmlns:xlink="http://www.w3.org/1999/xlink" x="0px" y="0px"
	 viewBox="46 -46.5 192.5 192.5" style="enable-background:new 46 -46.5 192.5 192.5;" xml:space="preserve">
<style type="text/css">
	.st0{fill:#018063;}
</style>
<g>
	<path class="st0" d="M214.6,32c4.7-1.4,9.1-6.9,11.3-10.5c3.2-5.1,4.1-11.2,3.2-17c-1.9-12-12.8-13.4-22.5-11.2
		c5.3-10.7-4.8-24.4-14.6-29.2c-11.3-5.6-23-1.9-26,9.1c0.2-4.9-1.8-10.4-4.4-14.1c-3.1-4.3-7.5-6.1-12.7-5.3
		c-10.8,1.7-15.3,15.8-15.6,25.4c-35,3.2-63.9,25.3-75.5,59.1c-12.4,36.2,7.7,71.5,37.1,91.8c32.7,22.6,79.2,21.3,110-4.3
		C235.7,100.1,238.4,62.8,214.6,32z M194.4,119c-7.9,5.9-16.4,9.9-25.3,12.3c-16.7-23.6-12.1-55-1.4-80.4c1.4-3.2-3.7-5-5.4-2.3
		c-14.9,23.9-18.7,62.3,2,83.8c-11.1,2.2-22.6,2-33.7-0.5c-1.2-33.3,0.5-64,17.5-94.1c1.9-3.4-3.2-6.4-5.3-3.1
		c-18,28.6-23.3,62.8-17.5,95.9c-8.5-2.4-16.8-6.1-24.5-10.9c-5.2-3.2-9.8-7-14-11.2c0.1-0.3,0.1-0.7,0.1-1.1
		c-5.9-35.1,7.5-66.5,27.8-94.6c1.8-2.5-2.3-5.7-4.3-3.3c-21.3,26-35.2,58.7-29.4,92.2c-13-16.9-18-38.7-11.9-60.5
		c8.5-30.1,38.2-47.3,65.9-57c2.3,1.3,5.9,0.3,6.1-3.2c0.4-6.4,2.8-14.6,8.9-17.9c6.1-3.3,7.1,11.6,9,14.2c1.4,1.9,4.9,2.7,6.1,0
		c0.1-0.3,0.2-0.7,0.3-1c-0.1,0.7-0.2,1.3-0.2,2c-0.1,2.6,4,3.2,4.6,0.6c2.2-9.8,10.7-11,18.8-6.9c4,2,7.1,5.2,9.2,9.1
		c2.3,4.3,0.3,8.5-0.7,12.8c-0.4,1.5,0.2,2.9,1.2,3.7c0.1,1.4,1.5,2.8,3.1,2.4c7-1.8,18.4-2.4,19.2,7.3c0.3,3.7-1.2,7.2-3.2,10.3
		c-2.4,3.7-6.9,4.7-9.3,8.3c-0.5,0.8-0.7,1.6-0.6,2.4c-3.2,1.1-5.7,4.9-3.3,8.1C225.7,65.1,224,97,194.4,119z"/>
	<path class="st0" d="M144.1,11.9C120.8,29,75,93.1,105.6,120.4c1.4,1.3,3.9-0.4,2.8-2.1c-19.9-30.8,17-81.6,39.1-102
		C149.8,14.1,146.7,9.9,144.1,11.9z"/>
	<path class="st0" d="M195,115.7c-5.9-22.2-8.5-42.6-7.5-65.5c0.2-3.8-6-4.7-6.6-0.9c-3.9,22.9-0.3,47.4,9.2,68.5
		C191.4,120.6,195.7,118.5,195,115.7z"/>
</g>
</svg>
