<?xml version="1.0" encoding="utf-8"?>
<!-- Generator: Adobe Illustrator 19.1.0, SVG Export Plug-In . SVG Version: 6.00 Build 0)  -->
<svg version="1.1" id="Capa_1" xmlns="http://www.w3.org/2000/svg" xmlns:xlink="http://www.w3.org/1999/xlink" x="0px" y="0px"
	 viewBox="185 -184.2 469.2 469.2" style="enable-background:new 185 -184.2 469.2 469.2;" xml:space="preserve">
<style type="text/css">
	.st0{fill:#018063;}
</style>
<g>
	<path class="st0" d="M620.8-4.7c-36.4-36.4-95.9-36-132.8,0.8c-0.1,0.1-0.3,0.3-0.4,0.4c-6-9.8-13.4-18.6-22.2-26.3
		c-18.8-16.4-42.9-24.4-68-22.5c-25,1.9-47.9,13.4-64.4,32.4c-7.7,8.8-13.3,19.2-16.3,30.4c-6.1-1-12.3-1.5-18.6-1.5
		c-51.5,0-93.3,42.4-93.3,94.4c0,42.5,34.2,77,76.2,77c34.4,0,62.4-28.3,62.4-63.1c0-28.7-23.1-52-51.4-52
		c-23.5,0-42.7,19.3-42.7,43.1c0,4.1,3.4,7.5,7.5,7.5s7.5-3.4,7.5-7.5c0-15.5,12.4-28.1,27.7-28.1c20.1,0,36.4,16.6,36.4,37
		c0,26.5-21.3,48.1-47.4,48.1c-33.7,0-61.2-27.8-61.2-62c0-43.8,35.1-79.4,78.3-79.4c55,0,99.8,45.4,99.8,101.1
		c0,29.6,24.1,53.6,53.6,53.6c4.1,0,7.5-3.4,7.5-7.5s-3.4-7.5-7.5-7.5c-21.3,0-38.6-17.3-38.6-38.6c0-9.9-1.2-19.4-3.5-28.6
		c7.2-3.7,13.7-8.7,19.1-14.9c18.8-21.6,16.7-54.4-4.6-73c-13-11.3-31.4-13.6-47-5.9c-3.7,1.8-5.2,6.3-3.4,10
		c1.8,3.7,6.3,5.2,10,3.4c10.1-5,22.1-3.5,30.5,3.8c15.1,13.2,16.6,36.5,3.2,51.8c-3.6,4.1-7.8,7.5-12.4,10.2
		c-12.9-32.5-39.9-57.8-73.3-68.1c2.5-8.8,6.9-17,13-24c13.9-16,33.2-25.7,54.2-27.3c21-1.6,41.2,5.1,57,18.9
		c20.8,18.2,33.2,44.5,33.9,72.4c0,1.3,0.1,10.2,0.1,45.1c0,21.3,8.3,41.3,23.3,56.3c15,15,35,23.3,56.3,23.3c4.1,0,7.5-3.4,7.5-7.5
		s-3.4-7.5-7.5-7.5c-17.3,0-33.5-6.7-45.7-18.9c-7.7-7.7-13.2-16.9-16.2-27c7.7,3.2,15.9,4.8,24.1,4.8c16.2,0,32.5-6.3,44.9-18.7
		c20.3-20.3,20.5-53.1,0.4-73.1C560,14.2,532.8,14.3,516,31.1c-2.9,2.9-2.9,7.7,0,10.6c2.9,2.9,7.7,2.9,10.6,0
		c11-11,28.6-11.1,39.4-0.3c14.2,14.2,14,37.5-0.4,51.9c-16.6,16.6-42.3,18.9-61,5.9c0-0.1,0-0.1,0-0.2c0-42.5,0-44.8-0.1-45.5
		c-0.4-14.9-3.7-29.5-9.5-42.9c1.1-1.4,2.4-2.7,3.6-4c31-31,81-31.3,111.5-0.8c18.8,18.8,29.1,44,28.9,70.8c0,4.1,3.3,7.5,7.5,7.5
		c0,0,0,0,0,0c4.1,0,7.5-3.3,7.5-7.5C654.4,46,642.5,17,620.8-4.7z"/>
	<path class="st0" d="M290.3-3.8c2.4,0,4.7,0.1,7.1,0.2c4.1,0.3,7.7-2.8,8-7c0.3-4.1-2.8-7.7-7-8c-2.7-0.2-5.4-0.3-8.1-0.3
		c-44.6,0-85.6,26.1-104.6,66.4c-1.8,3.7-0.2,8.2,3.6,10c1,0.5,2.1,0.7,3.2,0.7c2.8,0,5.5-1.6,6.8-4.3
		C215.8,18.9,251.5-3.8,290.3-3.8z"/>
	<path class="st0" d="M328.8-33c1.9,0,3.8-0.7,5.3-2.2c6.2-6.2,13.1-11.5,20.6-15.9c3.6-2.1,4.8-6.7,2.7-10.3
		c-2.1-3.6-6.7-4.8-10.3-2.7c-8.6,5-16.6,11.1-23.7,18.2c-2.9,2.9-2.9,7.7,0,10.6C325-33.7,326.9-33,328.8-33z"/>
	<path class="st0" d="M390.3-63.5c31.4-4.7,63.6,5.9,86,28.3c1.7,1.7,3.3,3.4,4.8,5.2c1.5,1.7,3.6,2.6,5.7,2.6
		c1.7,0,3.5-0.6,4.9-1.8c3.1-2.7,3.5-7.5,0.7-10.6c-1.8-2-3.6-4-5.5-5.9c-25.8-25.8-62.7-37.9-98.8-32.6c-4.1,0.6-6.9,4.4-6.3,8.5
		C382.3-65.7,386.2-62.9,390.3-63.5z"/>
</g>
</svg>
