<?xml version="1.0" encoding="utf-8"?>
<!-- Generator: Adobe Illustrator 19.1.0, SVG Export Plug-In . SVG Version: 6.00 Build 0)  -->
<svg version="1.1" id="Capa_1" xmlns="http://www.w3.org/2000/svg" xmlns:xlink="http://www.w3.org/1999/xlink" x="0px" y="0px"
	 viewBox="195 -194.9 489.9 489.9" style="enable-background:new 195 -194.9 489.9 489.9;" xml:space="preserve">
<style type="text/css">
	.st0{fill:#018063;}
</style>
<path class="st0" d="M627.4,8.2h-87.6V-3.3v-27.9v-16.5v-27.9c0-18.4,15-33.4,33.4-33.4h10.3c4.1,0,7.5-3.4,7.5-7.5
	s-3.4-7.5-7.5-7.5h-10.3c-24.5,0-44.7,18.2-48,41.8c-8.7-8.6-20.7-13.9-33.9-13.9h-10.3c-4.1,0-7.5,3.4-7.5,7.5s3.4,7.5,7.5,7.5
	h10.3c18.4,0,33.4,15,33.4,33.4v16.5v27.9V8.2h-252c-9.5-20.6-30.3-34.1-53.3-34.1h-17.1c-2.2,0-4.4,1-5.8,2.7c-1.4,1.7-2,4-1.6,6.2
	l1.6,8.2c3.5,17.7,14.6,32.9,29.7,41.9c-15.3,9.6-26.3,25.1-30.1,43.3l-1.3,6c-0.5,2.2,0.1,4.5,1.5,6.3c1.4,1.8,3.6,2.8,5.8,2.8
	h17.1c22.3,0,42.6-12.7,52.4-32.3l63.4,21.1c36.8,12.3,71,33.1,98.7,60.2l10.6,11.2l-50.3,43.2c-1.5,1.3-2.5,3.2-2.6,5.3
	c-0.1,2,0.6,4,2,5.5c10.9,11.8,26.5,18.5,42.9,18.5c14.1,0,27.7-5,38.2-14l21.5-18.5c7.9,1.9,16.2,2.2,20.9,2.2h125
	c23.4,0,42.5-19.1,42.5-42.5V65.7C684.9,34,659.1,8.2,627.4,8.2z M642.4,178.9h-125c-7.8,0-15.2-1-20.4-2.7
	c-2.5-0.8-5.2-0.3-7.2,1.4l-24.6,21.1c-7.8,6.7-17.9,10.4-28.4,10.4c-9.5,0-18.6-3-26-8.5l44.5-38.2l8.9,8.9
	c1.5,1.5,3.4,2.2,5.3,2.2c1.9,0,3.8-0.7,5.3-2.2c2.9-2.9,3-7.7,0-10.6L461,147l-16.1-16.9c-0.1-0.1-0.1-0.1-0.2-0.2
	c-29.4-28.8-65.5-50.8-104.5-63.8l-70-23.3c-3.9-1.3-8.1,0.8-9.4,4.6c-6.2,17.4-22.7,29.1-41.2,29.1h-7.8
	c4.7-17.4,18.1-31.3,35.5-36.5c3.2-1,5.4-4,5.3-7.4c-0.1-3.4-2.4-6.3-5.7-7.1c-17.7-4.4-31.5-18.7-35.3-36.4h7.9
	c18.5,0,35,11.7,41.2,29.1c1.1,3,3.9,5,7.1,5h359.6c23.4,0,42.5,19.1,42.5,42.5v70.5h-69.3c-4.1,0-7.5,3.4-7.5,7.5s3.4,7.5,7.5,7.5
	h69.3v0.2C669.9,166.5,657.6,178.9,642.4,178.9z M608.7,101.1c0-5,4-9,9-9c5,0,9,4,9,9c0,5-4,9-9,9
	C612.7,110.1,608.7,106,608.7,101.1z"/>
</svg>
